<svg width="48" height="48" viewBox="0 0 48 48" fill="none" xmlns="http://www.w3.org/2000/svg">
<g clip-path="url(#clip0_46_149)">
<rect x="12" y="12.75" width="24" height="22.5" fill="white"/>
<path d="M24 0.959961C11.2752 0.959961 0.959961 11.2752 0.959961 24C0.959961 36.7248 11.2752 47.04 24 47.04C36.7248 47.04 47.04 36.7248 47.04 24C47.04 11.2752 36.7248 0.959961 24 0.959961ZM14.9544 16.8H33.0024C33.96 16.8 33.4656 18.0288 32.9448 18.3432C32.424 18.6552 25.2168 23.016 24.9456 23.1768C24.6744 23.3376 24.3288 23.4168 23.9784 23.4168C23.6412 23.4237 23.3082 23.3408 23.0136 23.1768L15.012 18.3432C14.4912 18.0288 13.9992 16.8 14.9544 16.8ZM33.6 30C33.6 30.504 32.9952 31.2 32.5344 31.2H15.4656C15.0048 31.2 14.4 30.504 14.4 30V21.2472C14.4 21.0264 14.3952 20.7408 14.8128 20.9832L23.0136 25.8192C23.303 25.9961 23.6398 26.0799 23.9784 26.0592C24.3288 26.0592 24.5832 26.0328 24.9456 25.8192L33.1872 20.9856C33.6048 20.7408 33.6 21.0288 33.6 21.2496V30Z" fill="#161617"/>
</g>
<defs>
<clipPath id="clip0_46_149">
<rect width="48" height="48" fill="white"/>
</clipPath>
</defs>
</svg>
