<svg width="48" height="48" viewBox="0 0 48 48" fill="none" xmlns="http://www.w3.org/2000/svg">
<rect x="11.25" y="9" width="25.5" height="27" fill="white"/>
<path d="M9.36972 38.6301C17.4503 46.7107 30.5493 46.7107 38.6299 38.6301C46.7104 30.5496 46.7104 17.4505 38.6299 9.36998C30.5493 1.28943 17.4503 1.28943 9.36972 9.36998C1.29082 17.4505 1.29082 30.5496 9.36972 38.6301ZM18.5477 11.1327L21.6263 14.2114C22.242 14.8271 22.3728 15.7788 21.9457 16.5385L20.7888 18.5926C20.6498 18.8389 20.5955 19.1239 20.634 19.4041C20.6726 19.6842 20.802 19.9439 21.0023 20.1435L27.8563 26.9976C28.0561 27.1976 28.316 27.3267 28.5961 27.3649C28.8762 27.4032 29.1611 27.3486 29.4072 27.2094L31.4613 26.0525C31.8308 25.8442 32.2584 25.7626 32.6787 25.8203C33.0989 25.878 33.4887 26.0718 33.7885 26.3719L36.8688 29.4522C37.2326 29.8168 37.437 30.3109 37.437 30.826C37.437 31.3411 37.2326 31.8352 36.8688 32.1998L35.4105 33.658C34.6016 34.465 33.5489 34.9824 32.4158 35.1299C31.2828 35.2775 30.1327 35.0469 29.1441 34.474L29.005 34.3945C22.9621 30.9417 17.9078 25.9939 14.327 20.026L13.6268 18.8574C13.0317 17.8673 12.7849 16.7065 12.9255 15.5599C13.0662 14.4133 13.5863 13.3466 14.4031 12.5297L15.8001 11.1327C15.9804 10.9522 16.1945 10.8089 16.4303 10.7112C16.666 10.6135 16.9187 10.5632 17.1739 10.5632C17.429 10.5632 17.6817 10.6135 17.9175 10.7112C18.1532 10.8089 18.3673 10.9522 18.5477 11.1327Z" fill="#161617"/>
</svg>
